PathFileType	4	(X/Y/Z)	trial_0_0-299.trc
DataRate	CameraRate	NumFrames	NumMarkers	Units	OrigDataRate	OrigDataStartFrame	OrigNumFrames
60	60	8	21	m	60	149	299
Frame#	Time	RHip			RKnee			RAnkle			RBigToe			RSmallToe			RHeel			LHip			LKnee			LAnkle			LBigToe			LSmallToe			LHeel			Neck			Head			Nose			RShoulder			RElbow			RWrist			LShoulder			LElbow			LWrist		
		X1	Y1	Z1	X2	Y2	Z2	X3	Y3	Z3	X4	Y4	Z4	X5	Y5	Z5	X6	Y6	Z6	X7	Y7	Z7	X8	Y8	Z8	X9	Y9	Z9	X10	Y10	Z10	X11	Y11	Z11	X12	Y12	Z12	X13	Y13	Z13	X14	Y14	Z14	X15	Y15	Z15	X16	Y16	Z16	X17	Y17	Z17	X18	Y18	Z18	X19	Y19	Z19	X20	Y20	Z20	X21	Y21	Z21
150	2.5	1.452384899387458	1.288145115356143	0.3917315920723669	2.0718027977760007	1.5083355490376062	0.3767602784826941	2.1905640442227	0.9403235938467411	0.33598665150563645	2.4688843042173234	1.1598836820270766	0.3215975613516863	2.455703114477854	1.1462769938244686	0.4043334713711156	2.1668147338332173	0.8768199168026829	0.323940671637892	1.350792829128817	1.1920356584393488	0.16636538359044228	1.823546001345898	1.123533477729097	0.09534984907390191	2.1578031683183374	0.9278270279113154	0.13987503280549787	2.507959671140785	1.2471686433956037	0.13194361836032292	2.3226728514545782	1.0046148498552145	0.07751715413285404	2.12048027835223	0.7950051030173406	0.18920267429695667	0.7438908093098395	1.192699447339775	0.4626162253615634	0.4079822463876852	1.2700528180313526	0.5367861811736931	0.5862683146155911	1.4735586398189326	0.4126302038991098	0.9113240513105831	1.3970139846702132	0.5703552150993454	1.2868474425064451	1.9863277625498252	0.3326274562629873	1.0789851356135716	1.9541008837713816	0.020908997427882204	0.7489632958032691	0.932671373021804	0.29175023062044547	0.9822407503308855	0.7756531250504135	0.16986387495572847	1.0796808925274826	0.6826042832762501	-0.02143044651018882
151	2.5166666666666666	1.4737911355761089	1.3212328011493317	0.3852525760572076	2.0648806686640557	1.507497034400335	0.37512366256188884	2.189713177359383	0.938225317132516	0.33640553815272595	2.4729015335776534	1.160092691475813	0.3204873444871909	2.457781436740118	1.152030794396432	0.4023383641337232	2.1651076390720605	0.8722705419084695	0.32477720872662946	1.352254454245449	1.1994660026512634	0.16471984209980264	1.8159040666750799	1.1079171411966906	0.09963461296438851	2.157131708794261	0.9247597202440297	0.1403996423242876	2.4922016388089707	1.2205300550790465	0.13801230480400817	2.318720553684451	0.996373909685563	0.07969756021459881	2.12468680822909	0.8117556377884269	0.18666418042808933	0.7425561717065506	1.175097237888881	0.46726505643080124	0.41192110513133595	1.3391832080921244	0.5554750338356707	0.5836431169351937	1.5094874289162612	0.42042143385053266	0.9220554655284044	1.3853963970283434	0.5738997772443941	1.3084387873203498	1.9809839383666914	0.3347875980866777	1.0883671164946043	1.8322274907156724	-0.0012749986589618873	0.7415282873645836	0.9036231668849132	0.2844238363078848	0.9783822687862026	0.7523981279757262	0.1770803043713415	1.0644310518667703	0.6300797661248364	0.01289935592076275
152	2.533333333333333	1.4722225087047829	1.3023738437855505	0.3882059305630654	2.0657865593977474	1.5109334954976938	0.37488227614726044	2.190384652060737	0.9398408160344449	0.3359568589215888	2.4509248960061902	1.1268363128232814	0.3106742841864078	2.449537842087156	1.1395471546789733	0.4055708099570741	2.1424882616244494	0.8426408159821952	0.33046600106818436	1.356668481626955	1.1934448432901115	0.1639472685306979	1.8257929660903145	1.1057565041455533	0.09785075172729064	2.178206447077928	0.9583411973241089	0.14637984727658296	2.493094567911905	1.2215850469642766	0.13753965351508435	2.3265502530956854	1.0025490865167614	0.07789599737778348	2.139289535779307	0.8271990270486166	0.1957703042996113	0.7424739262832587	1.1755477253176225	0.4676565448312339	0.4118889039782239	1.3008638710176206	0.5599106360269288	0.581684258194094	1.4564608528566492	0.42799119774556926	0.9245155632204253	1.3608325057509907	0.575480147573474	1.3247597045937674	1.9571466097437726	0.334545753302935	1.12259563184828	1.8614379117964022	-0.021290898816875365	0.7451339738770262	0.9389413864737998	0.2901189735597223	0.988042956003258	0.795733636202336	0.1650491958588626	1.0804183914413779	0.639235106064409	0.023436531317677468
153	2.55	1.466492126955654	1.3112163858518564	0.39023742887304713	2.0414356239457843	1.473998875226832	0.3660155088669333	2.1814975741182097	0.9328269594569348	0.33647476868356174	2.4452332047481993	1.12242101041892	0.3281101577923499	2.4488746251567735	1.1329406425273036	0.4061215000670929	2.1584221218126274	0.8707141984280149	0.3244902297931761	1.3664271992412087	1.2071542837305855	0.16153251839519933	1.8272991224010313	1.13550016951325	0.09388753660312688	2.1804114849984946	0.9741431079975609	0.1433137335831823	2.4899778788900178	1.2157953758319937	0.13948790487033982	2.3207487313848256	0.990298838488192	0.0836497810934283	2.113741128491265	0.798670796700246	0.18999152278969791	0.7463496852261519	1.1646917038915885	0.4674672585113111	0.41151269131690865	1.2986716494145327	0.5606240580353264	0.5870827912253059	1.4678885287847157	0.4279691491738589	0.9271794669415754	1.3543476082473425	0.5749065626275564	1.333064277773298	1.94004180053633	0.35115687966498277	1.14308901378149	1.7037415823838886	-0.0013427781247032926	0.7424261342947089	0.9014326457238929	0.2980017247710344	0.9693916391590188	0.6339103009715421	0.20764913172320293	1.105685526037998	0.5756193597219657	0.06363035041645272
154	2.566666666666667	1.4673150158381445	1.3150763199920346	0.3899740668021258	2.0417547488273025	1.4740849525250865	0.3660712663758302	2.1873057090783847	0.9330464264186064	0.3376332541277634	2.4621057584211763	1.1387866477666393	0.3233302561431345	2.447012599805936	1.129362146031816	0.406994545620377	2.1569110771256503	0.8673213656366427	0.325229160017127	1.3734715054227853	1.2100504713685523	0.16045465189807961	1.8344914860775559	1.1393218700736782	0.09269719213521767	2.180194169535845	0.9756810916692519	0.143297598291475	2.493656224518399	1.2335320339677398	0.13776673859039953	2.316411391944552	1.006262972499328	0.08023598938174868	2.1164750319527643	0.8017105070643995	0.1891640307368383	0.7497366951514063	1.1850959779726995	0.4797426061788306	0.4224344438718985	1.3300248618865291	0.5688243019126141	0.5875289654680345	1.4615404626868125	0.4288367500288814	0.9386256894051614	1.387736474911291	0.5728152038269312	1.333602113668961	1.9126704118866318	0.35195631293072216	1.1800146260880742	1.7019341431353159	0.009708076380515898	0.7454886837120517	0.8950327257712339	0.3001061360682743	0.9697083533414975	0.6339226924637875	0.20762592622935033	1.1115664359410058	0.5836250942804824	0.0749951129908521
155	2.5833333333333335	1.4751117406611927	1.3288833659123558	0.38498754976397165	2.041608581212373	1.4742528897631062	0.36668534070530584	2.1860626114372708	0.9303229907018404	0.3382677457975467	2.424441638206287	1.0789167471586172	0.32164916029943996	2.448938370841	1.1260930759949725	0.40686140491533196	2.1555633440596997	0.865288985515223	0.32619056607096647	1.3661263886591533	1.1690794599222647	0.15592559033513861	1.820848529729475	1.090897325483239	0.08735065780110635	2.186371050144527	0.9758446284907162	0.14288438423471517	2.4943592908618326	1.2355886565649534	0.13743442758361823	2.3172107490857274	1.0091375852900728	0.07977657807909015	2.1351997588730005	0.8338236725759153	0.19543550993682457	0.7549239337368219	1.1903790515435106	0.47954470211554157	0.4224466974292522	1.333542306118583	0.5687800282778431	0.5935547442855701	1.4664311801475742	0.43029597998466085	0.9424722761095619	1.365267701031057	0.5763866662489027	1.3484197595437457	1.9069026063867054	0.3530781079693698	1.1964880183369269	1.6558862144771243	-0.005915312466315336	0.7341264095003099	0.8520838010961219	0.29810843697924083	0.9643270122369184	0.6099099512670703	0.21515364733183623	1.1247701215528214	0.6140776508269598	0.09174237595612904
156	2.6	1.4968083607339135	1.3586117752223779	0.3819168087821072	2.047525818545834	1.472593341582025	0.3674913531815999	2.179065949052858	0.9288258969664637	0.3389219054762876	2.4136599260287817	1.0731893608905412	0.3236611493616532	2.447406141006177	1.131067635193378	0.4075759978038675	2.1591590894462387	0.8735456595341001	0.32778697415976166	1.3882830387114147	1.2189172160979567	0.15824022911010996	1.8407166518507745	1.1164681946433823	0.08297796985765919	2.1583567828337897	0.941079463151419	0.1378721755898516	2.4927373992727535	1.2373341535150717	0.13803434071052478	2.3131433068603577	1.0030944732735183	0.08162748186632682	2.1346602494043574	0.835620146219189	0.19548134074354187	0.7597031030578687	1.1851775731265173	0.47738060584123376	0.4243529890221008	1.3152695053101608	0.5593239756600451	0.5932491829385018	1.4733598658108653	0.431126174231255	0.9455510598892013	1.3594831817758652	0.5756115258168484	1.3415870473465208	1.8489951817741817	0.36311144508055876	1.2296510110582077	1.694370546934008	-0.01669253282425311	0.738126438606043	0.868862957259501	0.30653887049372014	0.9930047358741405	0.7412440176447105	0.20272555387506067	1.0885169620667157	0.774254616558108	0.07090329539211918
157	2.6166666666666667	1.5037850120200136	1.3540716905201664	0.38028516410171204	2.0412355682013787	1.436080560676851	0.36091466802814853	2.1863343699556523	0.9305709294228856	0.3385626036155839	2.4609495783632314	1.1447978569138528	0.32533732602043197	2.4598544125656723	1.1510088173956423	0.40326914029851973	2.1615106880605057	0.8776258542542543	0.326951434667595	1.39891070016252	1.2128876403229831	0.15690809329254204	1.8510019598948886	1.1219193338141258	0.0824713525034445	2.2023932669579467	1.0001282868029748	0.13982209252422823	2.5092379379998193	1.2580191573928847	0.13663699680662889	2.325748744512736	1.013932339098661	0.080586449225234	2.1484758386867586	0.8399470769420743	0.19558944258965058	0.7607908306984673	1.213489951479816	0.47221772222717845	0.4224023779666248	1.32340595397212	0.5599581541379346	0.5981548587700392	1.4805110818890737	0.4321043540285477	0.9437231660069912	1.3325233995389034	0.5769583224717836	1.3403070852999324	1.797044302141952	0.36713624345564577	1.2395000938932932	1.6633966491444188	-0.005784353861938563	0.7398632291462981	0.8877499874374891	0.3044998626927333	0.994691003151409	0.7420289044128208	0.20452715457162254	1.0917217496614078	0.7689189316786718	0.07088342393733107
